Exo 2-Black Italic.ufo
<glyph name="hyphen" format="2">
  <advance width="382"/>
  <unicode hex="002D"/>
  <outline>
    <contour>
      <point x="341" y="318" type="line"/>
      <point x="50" y="318" type="line"/>
      <point x="32" y="196" type="line"/>
      <point x="323" y="196" type="line"/>
    </contour>
  </outline>
</glyph>
<glyph name="slash" format="2">
  <advance width="597"/>
  <unicode hex="002F"/>
  <outline>
    <contour>
      <point x="635" y="690" type="line"/>
      <point x="466" y="690" type="line"/>
      <point x="-35" y="-79" type="line"/>
      <point x="134" y="-79" type="line"/>
    </contour>
  </outline>
</glyph>
<glyph name="L" format="2">
  <advance width="552"/>
  <unicode hex="004C"/>
  <anchor x="279" y="0" name="bottom"/>
  <anchor x="225" y="735" name="top"/>
  <anchor x="461" y="614" name="topright"/>
  <outline>
    <contour>
      <point x="252" y="212" type="curve" smooth="yes"/>
      <point x="323" y="690" type="line"/>
      <point x="105" y="690" type="line"/>
      <point x="31" y="157" type="line" smooth="yes"/>
      <point x="17" y="64"/>
      <point x="81" y="-4"/>
      <point x="181" y="-4" type="curve" smooth="yes"/>
      <point x="295" y="-4"/>
      <point x="420" y="-3"/>
      <point x="512" y="9" type="curve"/>
      <point x="516" y="172" type="line"/>
      <point x="288" y="172" type="line" smooth="yes"/>
      <point x="257" y="172"/>
      <point x="249" y="182"/>
    </contour>
  </outline>
</glyph>
<glyph name="underscore" format="2">
  <advance width="451.281"/>
  <unicode hex="005F"/>
  <outline>
    <contour>
      <point x="416" y="0" type="line"/>
      <point x="-35" y="0" type="line"/>
      <point x="-52" y="-122" type="line"/>
      <point x="399" y="-122" type="line"/>
    </contour>
  </outline>
</glyph>
<glyph name="brokenbar" format="2">
  <advance width="279"/>
  <unicode hex="00A6"/>
  <outline>
    <contour>
      <point x="282" y="781" type="line"/>
      <point x="136" y="781" type="line"/>
      <point x="79" y="381" type="line"/>
      <point x="225" y="381" type="line"/>
    </contour>
    <contour>
      <point x="204" y="231" type="line"/>
      <point x="58" y="231" type="line"/>
      <point x="2" y="-169" type="line"/>
      <point x="148" y="-169" type="line"/>
    </contour>
  </outline>
</glyph>
<glyph name="macron" format="2">
  <advance width="400"/>
  <unicode hex="00AF"/>
  <anchor x="246" y="553" name="_top"/>
  <outline>
    <contour>
      <point x="425" y="713" type="line"/>
      <point x="105" y="713" type="line"/>
      <point x="88" y="590" type="line"/>
      <point x="408" y="590" type="line"/>
    </contour>
  </outline>
</glyph>
<glyph name="acute" format="2">
  <advance width="392"/>
  <unicode hex="00B4"/>
  <anchor x="181" y="526" name="_top"/>
  <outline>
    <contour>
      <point x="337" y="753" type="line"/>
      <point x="90" y="597" type="line"/>
      <point x="137" y="511" type="line"/>
      <point x="403" y="607" type="line"/>
    </contour>
  </outline>
</glyph>
<glyph name="uni00B9" format="2">
  <advance width="321"/>
  <unicode hex="00B9"/>
  <outline>
    <contour>
      <point x="348" y="774" type="line"/>
      <point x="188" y="774" type="line"/>
      <point x="74" y="735" type="line"/>
      <point x="78" y="637" type="line"/>
      <point x="177" y="651" type="line"/>
      <point x="169" y="630"/>
      <point x="165" y="611"/>
      <point x="162" y="591" type="curve" smooth="yes"/>
      <point x="130" y="360" type="line"/>
      <point x="290" y="360" type="line"/>
    </contour>
  </outline>
</glyph>
<glyph name="Eth" format="2">
  <advance width="700"/>
  <unicode hex="00D0"/>
  <outline>
    <contour>
      <point x="373" y="413" type="line"/>
      <point x="22" y="413" type="line"/>
      <point x="8" y="313" type="line"/>
      <point x="359" y="313" type="line"/>
    </contour>
    <component base="D"/>
  </outline>
</glyph>
<glyph name="dcroat" format="2">
  <advance width="622"/>
  <unicode hex="0111"/>
  <outline>
    <contour>
      <point x="685" y="631" type="line"/>
      <point x="314" y="631" type="line"/>
      <point x="302" y="547" type="line"/>
      <point x="673" y="547" type="line"/>
    </contour>
    <component base="d"/>
  </outline>
</glyph>
<glyph name="Hbar" format="2">
  <advance width="705"/>
  <unicode hex="0126"/>
  <outline>
    <contour>
      <point x="748" y="601" type="line"/>
      <point x="45" y="601" type="line"/>
      <point x="31" y="509" type="line"/>
      <point x="734" y="509" type="line"/>
    </contour>
    <component base="H"/>
  </outline>
</glyph>
<glyph name="dotlessi" format="2">
  <advance width="306"/>
  <unicode hex="0131"/>
  <anchor x="110" y="-5" name="bottom"/>
  <anchor x="198" y="0" name="ogonek"/>
  <anchor x="188" y="547" name="top"/>
  <outline>
    <contour>
      <point x="288" y="500" type="line"/>
      <point x="77" y="500" type="line"/>
      <point x="7" y="0" type="line"/>
      <point x="218" y="0" type="line"/>
    </contour>
  </outline>
</glyph>
<glyph name="Tbar" format="2">
  <advance width="618"/>
  <unicode hex="0166"/>
  <outline>
    <contour>
      <point x="550" y="381" type="line"/>
      <point x="100" y="381" type="line"/>
      <point x="87" y="287" type="line"/>
      <point x="537" y="287" type="line"/>
    </contour>
    <component base="T"/>
  </outline>
</glyph>
<glyph name="tbar" format="2">
  <advance width="439"/>
  <unicode hex="0167"/>
  <outline>
    <contour>
      <point x="388" y="316" type="line"/>
      <point x="45" y="316" type="line"/>
      <point x="32" y="222" type="line"/>
      <point x="375" y="222" type="line"/>
    </contour>
    <component base="t"/>
  </outline>
</glyph>
<glyph name="aringacute" format="2">
  <advance width="613"/>
  <unicode hex="01FB"/>
  <outline>
    <contour>
      <point x="484" y="1011" type="line"/>
      <point x="237" y="855" type="line"/>
      <point x="284" y="769" type="line"/>
      <point x="550" y="865" type="line"/>
    </contour>
    <component base="a"/>
    <component base="ring" xOffset="154" yOffset="-5"/>
  </outline>
</glyph>
<glyph name="uni02B9" format="2">
  <advance width="300"/>
  <unicode hex="02B9"/>
  <anchor x="230" y="523" name="_top"/>
  <outline>
    <contour>
      <point x="321" y="750" type="line"/>
      <point x="177" y="750" type="line"/>
      <point x="88" y="522" type="line"/>
      <point x="208" y="522" type="line"/>
    </contour>
  </outline>
</glyph>
<glyph name="uni02BA" format="2">
  <advance width="479"/>
  <unicode hex="02BA"/>
  <anchor x="240" y="523" name="_top"/>
  <outline>
    <contour>
      <point x="500" y="750" type="line"/>
      <point x="356" y="750" type="line"/>
      <point x="267" y="522" type="line"/>
      <point x="387" y="522" type="line"/>
    </contour>
    <contour>
      <point x="321" y="750" type="line"/>
      <point x="177" y="750" type="line"/>
      <point x="88" y="522" type="line"/>
      <point x="208" y="522" type="line"/>
    </contour>
  </outline>
</glyph>
<glyph name="gravecomb" format="2">
  <advance width="0"/>
  <unicode hex="0300"/>
  <anchor x="291" y="526" name="_top"/>
  <outline>
    <contour>
      <point x="335" y="511" type="line"/>
      <point x="402" y="597" type="line"/>
      <point x="167" y="747" type="line"/>
      <point x="87" y="617" type="line"/>
    </contour>
  </outline>
</glyph>
<glyph name="acutecomb" format="2">
  <advance width="0"/>
  <unicode hex="0301"/>
  <anchor x="-220" y="526" name="_top"/>
  <outline>
    <contour>
      <point x="-64" y="753" type="line"/>
      <point x="-311" y="597" type="line"/>
      <point x="-264" y="511" type="line"/>
      <point x="2" y="607" type="line"/>
    </contour>
  </outline>
</glyph>
<glyph name="uni0304" format="2">
  <advance width="0"/>
  <unicode hex="0304"/>
  <anchor x="-154" y="553" name="_top"/>
  <outline>
    <contour>
      <point x="25" y="713" type="line"/>
      <point x="-295" y="713" type="line"/>
      <point x="-312" y="590" type="line"/>
      <point x="8" y="590" type="line"/>
    </contour>
  </outline>
</glyph>
<glyph name="uni0311" format="2">
  <advance width="0"/>
  <unicode hex="0311"/>
  <anchor x="-157" y="532" name="_top"/>
  <outline>
    <contour>
      <point x="-336" y="549" type="curve"/>
      <point x="-242" y="534" type="line"/>
      <point x="-238" y="570"/>
      <point x="-211" y="591"/>
      <point x="-151" y="591" type="curve" smooth="yes"/>
      <point x="-94" y="591"/>
      <point x="-71" y="578"/>
      <point x="-78" y="536" type="curve"/>
      <point x="20" y="541" type="line"/>
      <point x="49" y="630"/>
      <point x="-18" y="717"/>
      <point x="-142" y="717" type="curve" smooth="yes"/>
      <point x="-267" y="717"/>
      <point x="-339" y="638"/>
    </contour>
  </outline>
</glyph>
<glyph name="uni031B" format="2">
  <advance width="0"/>
  <unicode hex="031B"/>
  <anchor x="-181" y="561" name="_top"/>
  <outline>
    <contour>
      <point x="-240" y="462" type="curve"/>
      <point x="-251" y="379" type="line"/>
      <point x="-135" y="366"/>
      <point x="-40" y="427"/>
      <point x="-18" y="540" type="curve"/>
      <point x="-140" y="556" type="line"/>
      <point x="-151" y="511"/>
      <point x="-188" y="464"/>
    </contour>
  </outline>
</glyph>
<glyph name="uni0326" format="2">
  <advance width="0"/>
  <unicode hex="0326"/>
  <anchor x="103" y="-12" name="bottom"/>
  <outline>
    <contour>
      <point x="110" y="-48" type="curve" smooth="yes"/>
      <point x="78" y="-48" type="line" smooth="yes"/>
      <point x="32" y="-48"/>
      <point x="9" y="-60"/>
      <point x="2" y="-101" type="curve" smooth="yes"/>
      <point x="-4" y="-136" type="line" smooth="yes"/>
      <point x="-9" y="-169"/>
      <point x="3" y="-185"/>
      <point x="43" y="-184" type="curve"/>
      <point x="32" y="-218"/>
      <point x="22" y="-253"/>
      <point x="4" y="-287" type="curve"/>
      <point x="81" y="-311" type="line"/>
      <point x="120" y="-273"/>
      <point x="154" y="-206"/>
      <point x="163" y="-153" type="curve" smooth="yes"/>
      <point x="171" y="-105" type="line" smooth="yes"/>
      <point x="178" y="-64"/>
      <point x="158" y="-48"/>
    </contour>
  </outline>
</glyph>
<glyph name="uni0406" format="2">
  <advance width="329"/>
  <unicode hex="0406"/>
  <anchor x="223" y="735" name="top"/>
  <outline>
    <contour>
      <point x="328" y="690" type="line"/>
      <point x="113" y="690" type="line"/>
      <point x="16" y="0" type="line"/>
      <point x="231" y="0" type="line"/>
    </contour>
  </outline>
</glyph>
<glyph name="uni0408" format="2">
  <advance width="399"/>
  <unicode hex="0408"/>
  <outline>
    <contour>
      <point x="322" y="123" type="curve" smooth="yes"/>
      <point x="400" y="690" type="line"/>
      <point x="184" y="690" type="line"/>
      <point x="111" y="187" type="line" smooth="yes"/>
      <point x="108" y="162"/>
      <point x="90" y="148"/>
      <point x="47" y="148" type="curve" smooth="yes"/>
      <point x="10" y="148" type="line"/>
      <point x="-24" y="14" type="line"/>
      <point x="7" y="-4"/>
      <point x="88" y="-14"/>
      <point x="138" y="-14" type="curve" smooth="yes"/>
      <point x="239" y="-14"/>
      <point x="309" y="33"/>
    </contour>
  </outline>
</glyph>
<glyph name="uni041D" format="2">
  <advance width="713"/>
  <unicode hex="041D"/>
  <outline>
    <contour>
      <point x="330" y="690" type="line"/>
      <point x="113" y="690" type="line"/>
      <point x="16" y="0" type="line"/>
      <point x="233" y="0" type="line"/>
    </contour>
    <contour>
      <point x="471" y="443" type="line"/>
      <point x="287" y="443" type="line"/>
      <point x="266" y="289" type="line"/>
      <point x="449" y="289" type="line"/>
    </contour>
    <contour>
      <point x="712" y="690" type="line"/>
      <point x="495" y="690" type="line"/>
      <point x="398" y="0" type="line"/>
      <point x="615" y="0" type="line"/>
    </contour>
  </outline>
</glyph>
<glyph name="uni0422" format="2">
  <advance width="618"/>
  <unicode hex="0422"/>
  <outline>
    <contour>
      <point x="473" y="690" type="line"/>
      <point x="256" y="690" type="line"/>
      <point x="159" y="0" type="line"/>
      <point x="376" y="0" type="line"/>
    </contour>
    <contour>
      <point x="664" y="690" type="line"/>
      <point x="66" y="690" type="line"/>
      <point x="43" y="528" type="line"/>
      <point x="641" y="528" type="line"/>
    </contour>
  </outline>
</glyph>
<glyph name="uni0446" format="2">
  <advance width="660"/>
  <unicode hex="0446"/>
  <outline>
    <contour>
      <point x="235" y="189" type="curve" smooth="yes"/>
      <point x="280" y="500" type="line"/>
      <point x="69" y="500" type="line"/>
      <point x="17" y="130" type="line" smooth="yes"/>
      <point x="4" y="38"/>
      <point x="53" y="-14"/>
      <point x="156" y="-14" type="curve" smooth="yes"/>
      <point x="236" y="-14"/>
      <point x="312" y="28"/>
      <point x="400" y="126" type="curve"/>
      <point x="364" y="212" type="line"/>
      <point x="316" y="174"/>
      <point x="289" y="162"/>
      <point x="258" y="162" type="curve" smooth="yes"/>
      <point x="242" y="162"/>
      <point x="232" y="167"/>
    </contour>
    <contour>
      <point x="465" y="5" type="line"/>
      <point x="414" y="-149" type="line"/>
      <point x="586" y="-149" type="line"/>
      <point x="608" y="0" type="line"/>
    </contour>
    <contour>
      <point x="547" y="141" type="curve" smooth="yes"/>
      <point x="598" y="500" type="line"/>
      <point x="389" y="500" type="line"/>
      <point x="339" y="146" type="line"/>
      <point x="358" y="134" type="line"/>
      <point x="360" y="91" type="line" smooth="yes"/>
      <point x="362" y="38"/>
      <point x="401" y="0"/>
      <point x="450" y="0" type="curve" smooth="yes"/>
      <point x="608" y="0" type="line"/>
      <point x="625" y="118" type="line"/>
      <point x="568" y="118" type="line" smooth="yes"/>
      <point x="555" y="118"/>
      <point x="545" y="128"/>
    </contour>
  </outline>
</glyph>
<glyph name="uni045F" format="2">
  <advance width="618"/>
  <unicode hex="045F"/>
  <outline>
    <contour>
      <point x="344" y="-39" type="line"/>
      <point x="213" y="-39" type="line"/>
      <point x="169" y="-251" type="line"/>
      <point x="327" y="-251" type="line"/>
    </contour>
    <component base="u" xOffset="2"/>
  </outline>
</glyph>
<glyph name="uni0472" format="2">
  <advance width="700"/>
  <unicode hex="0472"/>
  <outline>
    <contour>
      <point x="202" y="287" type="line"/>
      <point x="492" y="287" type="line"/>
      <point x="492" y="411" type="line"/>
      <point x="202" y="411" type="line"/>
    </contour>
    <component base="uni041E"/>
  </outline>
</glyph>
<glyph name="uni048A" format="2">
  <advance width="774"/>
  <unicode hex="048A"/>
  <outline>
    <contour>
      <point x="454" y="142" type="line"/>
      <point x="434" y="0" type="line"/>
      <point x="554" y="0" type="line"/>
      <point x="518" y="-151" type="line"/>
      <point x="675" y="-151" type="line"/>
      <point x="727" y="0" type="line"/>
      <point x="747" y="142" type="line"/>
    </contour>
    <component base="uni0418"/>
    <component base="uni0306.cy" xOffset="84" yOffset="235"/>
  </outline>
</glyph>
<glyph name="uni048B" format="2">
  <advance width="639"/>
  <unicode hex="048B"/>
  <outline>
    <contour>
      <point x="392" y="142" type="line"/>
      <point x="372" y="0" type="line"/>
      <point x="439" y="0" type="line"/>
      <point x="405" y="-141" type="line"/>
      <point x="552" y="-141" type="line"/>
      <point x="602" y="0" type="line"/>
      <point x="622" y="142" type="line"/>
    </contour>
    <component base="uni0438"/>
    <component base="uni0306.cy" xOffset="9" yOffset="47"/>
  </outline>
</glyph>
<glyph name="uni048C" format="2">
  <advance width="677"/>
  <unicode hex="048C"/>
  <outline>
    <contour>
      <point x="17" y="507" type="line"/>
      <point x="558" y="507" type="line"/>
      <point x="574" y="627" type="line"/>
      <point x="33" y="627" type="line"/>
    </contour>
    <component base="uni042C" xOffset="46"/>
  </outline>
</glyph>
<glyph name="uni0492" format="2">
  <advance width="589"/>
  <unicode hex="0492"/>
  <outline>
    <contour>
      <point x="-24" y="253" type="line"/>
      <point x="505" y="253" type="line"/>
      <point x="519" y="373" type="line"/>
      <point x="-10" y="373" type="line"/>
    </contour>
    <component base="uni0413" xOffset="35"/>
  </outline>
</glyph>
<glyph name="uni0496" format="2">
  <advance width="1038"/>
  <unicode hex="0496"/>
  <outline>
    <contour>
      <point x="745" y="0" type="line"/>
      <point x="993" y="0" type="line"/>
      <point x="1013" y="142" type="line"/>
      <point x="765" y="142" type="line"/>
    </contour>
    <contour>
      <point x="814" y="-151" type="line"/>
      <point x="971" y="-151" type="line"/>
      <point x="994" y="7" type="line"/>
      <point x="821" y="7" type="line"/>
    </contour>
    <component base="uni0416"/>
  </outline>
</glyph>
<glyph name="uni0497" format="2">
  <advance width="904"/>
  <unicode hex="0497"/>
  <outline>
    <contour>
      <point x="897" y="136" type="line"/>
      <point x="662" y="136" type="line"/>
      <point x="643" y="0" type="line"/>
      <point x="725" y="0" type="line"/>
      <point x="720" y="-136" type="line"/>
      <point x="859" y="-136" type="line"/>
    </contour>
    <component base="uni0436"/>
  </outline>
</glyph>
<glyph name="uni049A" format="2">
  <advance width="682"/>
  <unicode hex="049A"/>
  <outline>
    <contour>
      <point x="671" y="142" type="line"/>
      <point x="423" y="142" type="line"/>
      <point x="403" y="0" type="line"/>
      <point x="651" y="0" type="line"/>
    </contour>
    <contour>
      <point x="652" y="7" type="line"/>
      <point x="479" y="7" type="line"/>
      <point x="472" y="-151" type="line"/>
      <point x="629" y="-151" type="line"/>
    </contour>
    <component base="uni041A" xOffset="-4"/>
  </outline>
</glyph>
<glyph name="uni049B" format="2">
  <advance width="619"/>
  <unicode hex="049B"/>
  <outline>
    <contour>
      <point x="591" y="136" type="line"/>
      <point x="356" y="136" type="line"/>
      <point x="337" y="0" type="line"/>
      <point x="419" y="0" type="line"/>
      <point x="414" y="-136" type="line"/>
      <point x="553" y="-136" type="line"/>
    </contour>
    <component base="uni043A"/>
  </outline>
</glyph>
<glyph name="uni049E" format="2">
  <advance width="701"/>
  <unicode hex="049E"/>
  <outline>
    <contour>
      <point x="18" y="525" type="line"/>
      <point x="436" y="525" type="line"/>
      <point x="452" y="645" type="line"/>
      <point x="34" y="645" type="line"/>
    </contour>
    <component base="uni041A" xOffset="33"/>
  </outline>
</glyph>
<glyph name="uni04A0" format="2">
  <advance width="795"/>
  <unicode hex="04A0"/>
  <outline>
    <contour>
      <point x="438" y="690" type="line"/>
      <point x="28" y="690" type="line"/>
      <point x="6" y="528" type="line"/>
      <point x="416" y="528" type="line"/>
    </contour>
    <component base="uni041A" xOffset="127"/>
  </outline>
</glyph>
<glyph name="uni04A2" format="2">
  <advance width="733"/>
  <unicode hex="04A2"/>
  <outline>
    <contour>
      <point x="708" y="142" type="line"/>
      <point x="415" y="142" type="line"/>
      <point x="395" y="0" type="line"/>
      <point x="688" y="0" type="line"/>
    </contour>
    <contour>
      <point x="689" y="7" type="line"/>
      <point x="516" y="7" type="line"/>
      <point x="509" y="-151" type="line"/>
      <point x="666" y="-151" type="line"/>
    </contour>
    <component base="uni041D" xOffset="-4"/>
  </outline>
</glyph>
<glyph name="uni04A3" format="2">
  <advance width="659"/>
  <unicode hex="04A3"/>
  <outline>
    <contour>
      <point x="631" y="136" type="line"/>
      <point x="396" y="136" type="line"/>
      <point x="377" y="0" type="line"/>
      <point x="459" y="0" type="line"/>
      <point x="454" y="-136" type="line"/>
      <point x="593" y="-136" type="line"/>
    </contour>
    <component base="uni043D"/>
  </outline>
</glyph>
<glyph name="uni04AC" format="2">
  <advance width="618"/>
  <unicode hex="04AC"/>
  <outline>
    <contour>
      <point x="159" y="0" type="line"/>
      <point x="452" y="0" type="line"/>
      <point x="472" y="142" type="line"/>
      <point x="179" y="142" type="line"/>
    </contour>
    <contour>
      <point x="273" y="-151" type="line"/>
      <point x="430" y="-151" type="line"/>
      <point x="453" y="7" type="line"/>
      <point x="280" y="7" type="line"/>
    </contour>
    <component base="uni0422"/>
  </outline>
</glyph>
<glyph name="uni04B3" format="2">
  <advance width="663"/>
  <unicode hex="04B3"/>
  <outline>
    <contour>
      <point x="637" y="136" type="line"/>
      <point x="402" y="136" type="line"/>
      <point x="383" y="0" type="line"/>
      <point x="465" y="0" type="line"/>
      <point x="460" y="-136" type="line"/>
      <point x="599" y="-136" type="line"/>
    </contour>
    <component base="x"/>
  </outline>
</glyph>
<glyph name="uni04B8" format="2">
  <advance width="690"/>
  <unicode hex="04B8"/>
  <outline>
    <contour>
      <point x="273" y="147" type="line"/>
      <point x="353" y="147" type="line"/>
      <point x="407" y="534" type="line"/>
      <point x="327" y="534" type="line"/>
    </contour>
    <component base="uni0427"/>
  </outline>
</glyph>
<glyph name="uni04BE" format="2">
  <advance width="762"/>
  <unicode hex="04BE"/>
  <outline>
    <contour>
      <point x="496" y="7" type="line"/>
      <point x="332" y="7" type="line"/>
      <point x="318" y="-151" type="line"/>
      <point x="466" y="-151" type="line"/>
    </contour>
    <component base="uni04BC"/>
  </outline>
</glyph>
<glyph name="uni04BF" format="2">
  <advance width="732"/>
  <unicode hex="04BF"/>
  <outline>
    <contour>
      <point x="490" y="5" type="line"/>
      <point x="324" y="5" type="line"/>
      <point x="313" y="-162" type="line"/>
      <point x="454" y="-162" type="line"/>
    </contour>
    <component base="uni04BD"/>
  </outline>
</glyph>
<glyph name="uni04C5" format="2">
  <advance width="708"/>
  <unicode hex="04C5"/>
  <outline>
    <contour>
      <point x="399" y="142" type="line"/>
      <point x="379" y="0" type="line"/>
      <point x="499" y="0" type="line"/>
      <point x="463" y="-151" type="line"/>
      <point x="620" y="-151" type="line"/>
      <point x="672" y="0" type="line"/>
      <point x="692" y="142" type="line"/>
    </contour>
    <component base="uni041B" xOffset="-18"/>
  </outline>
</glyph>
<glyph name="uni04C7" format="2">
  <advance width="714"/>
  <unicode hex="04C7"/>
  <outline>
    <contour>
      <point x="326" y="690" type="line"/>
      <point x="109" y="690" type="line"/>
      <point x="12" y="0" type="line"/>
      <point x="229" y="0" type="line"/>
    </contour>
    <contour>
      <point x="476" y="442" type="line"/>
      <point x="283" y="442" type="line"/>
      <point x="262" y="290" type="line"/>
      <point x="455" y="290" type="line"/>
    </contour>
    <contour>
      <point x="500" y="690" type="line"/>
      <point x="416" y="91" type="line" smooth="yes"/>
      <point x="405" y="17"/>
      <point x="373" y="-55"/>
      <point x="280" y="-55" type="curve"/>
      <point x="262" y="-182" type="line"/>
      <point x="410" y="-221"/>
      <point x="598" y="-160"/>
      <point x="630" y="69" type="curve" smooth="yes"/>
      <point x="717" y="690" type="line"/>
    </contour>
  </outline>
</glyph>
<glyph name="uni04C9" format="2">
  <advance width="734"/>
  <unicode hex="04C9"/>
  <outline>
    <contour>
      <point x="414" y="142" type="line"/>
      <point x="394" y="0" type="line"/>
      <point x="514" y="0" type="line"/>
      <point x="478" y="-151" type="line"/>
      <point x="635" y="-151" type="line"/>
      <point x="687" y="0" type="line"/>
      <point x="707" y="142" type="line"/>
    </contour>
    <component base="uni041D" xOffset="-4"/>
  </outline>
</glyph>
<glyph name="uni04CA" format="2">
  <advance width="656"/>
  <unicode hex="04CA"/>
  <outline>
    <contour>
      <point x="396" y="142" type="line"/>
      <point x="376" y="0" type="line"/>
      <point x="446" y="0" type="line"/>
      <point x="412" y="-141" type="line"/>
      <point x="559" y="-141" type="line"/>
      <point x="609" y="0" type="line"/>
      <point x="629" y="142" type="line"/>
    </contour>
    <component base="uni043D"/>
  </outline>
</glyph>
<glyph name="uni04CB" format="2">
  <advance width="668"/>
  <unicode hex="04CB"/>
  <outline>
    <contour>
      <point x="171" y="142" type="line"/>
      <point x="151" y="0" type="line"/>
      <point x="569" y="0" type="line"/>
      <point x="589" y="142" type="line"/>
    </contour>
    <contour>
      <point x="152" y="7" type="line"/>
      <point x="129" y="-151" type="line"/>
      <point x="286" y="-151" type="line"/>
      <point x="325" y="7" type="line"/>
    </contour>
    <component base="uni0427" xOffset="-22"/>
  </outline>
</glyph>
<glyph name="uni04CD" format="2">
  <advance width="988"/>
  <unicode hex="04CD"/>
  <outline>
    <contour>
      <point x="692" y="142" type="line"/>
      <point x="672" y="0" type="line"/>
      <point x="792" y="0" type="line"/>
      <point x="756" y="-151" type="line"/>
      <point x="913" y="-151" type="line"/>
      <point x="965" y="0" type="line"/>
      <point x="985" y="142" type="line"/>
    </contour>
    <component base="uni041C" xOffset="-3"/>
  </outline>
</glyph>
<glyph name="uni04CF" format="2">
  <advance width="300"/>
  <unicode hex="04CF"/>
  <anchor x="194" y="0" name="ogonek"/>
  <anchor x="179" y="547" name="top"/>
  <outline>
    <contour>
      <point x="309" y="690" type="line"/>
      <point x="104" y="690" type="line"/>
      <point x="6" y="0" type="line"/>
      <point x="211" y="0" type="line"/>
    </contour>
  </outline>
</glyph>
<glyph name="uni04E8" format="2">
  <advance width="700"/>
  <unicode hex="04E8"/>
  <anchor x="433" y="735" name="top"/>
  <outline>
    <contour>
      <point x="97" y="291" type="line"/>
      <point x="580" y="291" type="line"/>
      <point x="580" y="407" type="line"/>
      <point x="97" y="407" type="line"/>
    </contour>
    <component base="uni041E"/>
  </outline>
</glyph>
<glyph name="uni04F6" format="2">
  <advance width="523"/>
  <unicode hex="04F6"/>
  <outline>
    <contour>
      <point x="322" y="142" type="line"/>
      <point x="29" y="142" type="line"/>
      <point x="9" y="0" type="line"/>
      <point x="302" y="0" type="line"/>
    </contour>
    <contour>
      <point x="303" y="7" type="line"/>
      <point x="130" y="7" type="line"/>
      <point x="123" y="-151" type="line"/>
      <point x="280" y="-151" type="line"/>
    </contour>
    <component base="uni0413" xOffset="-4"/>
  </outline>
</glyph>
<glyph name="uni04FB" format="2">
  <advance width="502"/>
  <unicode hex="04FB"/>
  <outline>
    <contour>
      <point x="95" y="-67" type="curve"/>
      <point x="78" y="-188" type="line"/>
      <point x="192" y="-207"/>
      <point x="301" y="-155"/>
      <point x="317" y="-40" type="curve" smooth="yes"/>
      <point x="336" y="95" type="line"/>
      <point x="130" y="95" type="line"/>
      <point x="117" y="0" type="line"/>
      <point x="186" y="0" type="line"/>
      <point x="183" y="-18" type="line" smooth="yes"/>
      <point x="176" y="-58"/>
      <point x="143" y="-67"/>
    </contour>
    <component base="uni0493"/>
  </outline>
</glyph>
<glyph name="uni04FF" format="2">
  <advance width="618"/>
  <unicode hex="04FF"/>
  <outline>
    <contour>
      <point x="588" y="309" type="line"/>
      <point x="48" y="309" type="line"/>
      <point x="30" y="209" type="line"/>
      <point x="570" y="209" type="line"/>
    </contour>
    <component base="uni0445" xOffset="6"/>
  </outline>
</glyph>
<glyph name="uni0510" format="2">
  <advance width="583"/>
  <unicode hex="0510"/>
  <anchor x="230" y="0" name="bottom"/>
  <anchor x="367.766" y="732" name="top"/>
  <outline>
    <contour>
      <point x="201" y="-8" type="curve" smooth="yes"/>
      <point x="337" y="-8"/>
      <point x="417" y="5"/>
      <point x="507" y="31" type="curve"/>
      <point x="523" y="170" type="line"/>
      <point x="420" y="154"/>
      <point x="346" y="148"/>
      <point x="292" y="148" type="curve" smooth="yes"/>
      <point x="237" y="148"/>
      <point x="222" y="166"/>
      <point x="230" y="224" type="curve" smooth="yes"/>
      <point x="237" y="279"/>
      <point x="253" y="289"/>
      <point x="299" y="289" type="curve" smooth="yes"/>
      <point x="449" y="289" type="line"/>
      <point x="471" y="426" type="line"/>
      <point x="331" y="426" type="line" smooth="yes"/>
      <point x="277" y="426"/>
      <point x="273" y="443"/>
      <point x="280" y="495" type="curve" smooth="yes"/>
      <point x="286" y="535"/>
      <point x="303" y="542"/>
      <point x="343" y="542" type="curve" smooth="yes"/>
      <point x="418" y="542"/>
      <point x="467" y="537"/>
      <point x="547" y="527" type="curve"/>
      <point x="598" y="676" type="line"/>
      <point x="527" y="691"/>
      <point x="459" y="698"/>
      <point x="356" y="698" type="curve" smooth="yes"/>
      <point x="168" y="698"/>
      <point x="88" y="656"/>
      <point x="68" y="510" type="curve" smooth="yes"/>
      <point x="55" y="415"/>
      <point x="76" y="369"/>
      <point x="166" y="361" type="curve"/>
      <point x="166" y="355" type="line"/>
      <point x="67" y="346"/>
      <point x="14" y="278"/>
      <point x="-2" y="164" type="curve" smooth="yes"/>
      <point x="-22" y="26"/>
      <point x="41" y="-8"/>
    </contour>
  </outline>
</glyph>
<glyph name="uni0511" format="2">
  <advance width="532"/>
  <unicode hex="0511"/>
  <anchor x="231" y="0" name="bottom"/>
  <anchor x="328.449" y="553" name="top"/>
  <outline>
    <contour>
      <point x="218" y="-14" type="curve" smooth="yes"/>
      <point x="306" y="-14"/>
      <point x="391" y="-9"/>
      <point x="480" y="11" type="curve"/>
      <point x="497" y="144" type="line"/>
      <point x="409" y="135"/>
      <point x="332" y="132"/>
      <point x="285" y="132" type="curve" smooth="yes"/>
      <point x="241" y="132"/>
      <point x="223" y="134"/>
      <point x="229" y="164" type="curve" smooth="yes"/>
      <point x="233" y="190"/>
      <point x="250" y="194"/>
      <point x="277" y="194" type="curve" smooth="yes"/>
      <point x="448" y="195" type="line"/>
      <point x="466" y="310" type="line"/>
      <point x="304" y="311" type="line" smooth="yes"/>
      <point x="272" y="311"/>
      <point x="262" y="320"/>
      <point x="263" y="339" type="curve" smooth="yes"/>
      <point x="267" y="363"/>
      <point x="276" y="365"/>
      <point x="320" y="365" type="curve" smooth="yes"/>
      <point x="376" y="365"/>
      <point x="445" y="360"/>
      <point x="504" y="355" type="curve"/>
      <point x="549" y="490" type="line"/>
      <point x="472" y="512"/>
      <point x="385" y="514"/>
      <point x="342" y="514" type="curve" smooth="yes"/>
      <point x="166" y="514"/>
      <point x="83" y="493"/>
      <point x="64" y="368" type="curve" smooth="yes"/>
      <point x="55" y="307"/>
      <point x="71" y="267"/>
      <point x="158" y="260" type="curve"/>
      <point x="158" y="255" type="line"/>
      <point x="70" y="249"/>
      <point x="22" y="202"/>
      <point x="10" y="117" type="curve" smooth="yes"/>
      <point x="-7" y="-3"/>
      <point x="70" y="-14"/>
    </contour>
  </outline>
</glyph>
<glyph name="uni0524" format="2">
  <advance width="729"/>
  <unicode hex="0524"/>
  <outline>
    <contour>
      <point x="707" y="142" type="line"/>
      <point x="414" y="142" type="line"/>
      <point x="394" y="0" type="line"/>
      <point x="687" y="0" type="line"/>
    </contour>
    <contour>
      <point x="688" y="7" type="line"/>
      <point x="515" y="7" type="line"/>
      <point x="508" y="-151" type="line"/>
      <point x="665" y="-151" type="line"/>
    </contour>
    <component base="uni041F" xOffset="-4"/>
  </outline>
</glyph>
<glyph name="uni0525" format="2">
  <advance width="660"/>
  <unicode hex="0525"/>
  <outline>
    <contour>
      <point x="632" y="136" type="line"/>
      <point x="417" y="136" type="line"/>
      <point x="398" y="0" type="line"/>
      <point x="460" y="0" type="line"/>
      <point x="455" y="-136" type="line"/>
      <point x="594" y="-136" type="line"/>
    </contour>
    <component base="uni043F"/>
  </outline>
</glyph>
<glyph name="uni0526" format="2">
  <advance width="713"/>
  <unicode hex="0526"/>
  <outline>
    <contour>
      <point x="705" y="142" type="line"/>
      <point x="412" y="142" type="line"/>
      <point x="392" y="0" type="line"/>
      <point x="685" y="0" type="line"/>
    </contour>
    <contour>
      <point x="686" y="7" type="line"/>
      <point x="513" y="7" type="line"/>
      <point x="506" y="-151" type="line"/>
      <point x="663" y="-151" type="line"/>
    </contour>
    <component base="uni04BA" xOffset="-4"/>
  </outline>
</glyph>
<glyph name="uni0527" format="2">
  <advance width="662"/>
  <unicode hex="0527"/>
  <outline>
    <contour>
      <point x="634" y="136" type="line"/>
      <point x="399" y="136" type="line"/>
      <point x="380" y="0" type="line"/>
      <point x="462" y="0" type="line"/>
      <point x="457" y="-136" type="line"/>
      <point x="596" y="-136" type="line"/>
    </contour>
    <component base="uni04BB"/>
  </outline>
</glyph>
<glyph name="uni052E" format="2">
  <advance width="742"/>
  <unicode hex="052E"/>
  <outline>
    <contour>
      <point x="710" y="142" type="line"/>
      <point x="417" y="142" type="line"/>
      <point x="397" y="0" type="line"/>
      <point x="690" y="0" type="line"/>
    </contour>
    <contour>
      <point x="691" y="7" type="line"/>
      <point x="518" y="7" type="line"/>
      <point x="511" y="-151" type="line"/>
      <point x="668" y="-151" type="line"/>
    </contour>
    <component base="uni041B"/>
  </outline>
</glyph>
<glyph name="uni052F" format="2">
  <advance width="658"/>
  <unicode hex="052F"/>
  <outline>
    <contour>
      <point x="630" y="136" type="line"/>
      <point x="395" y="136" type="line"/>
      <point x="376" y="0" type="line"/>
      <point x="458" y="0" type="line"/>
      <point x="453" y="-136" type="line"/>
      <point x="592" y="-136" type="line"/>
    </contour>
    <component base="uni043B"/>
  </outline>
</glyph>
<glyph name="figuredash" format="2">
  <advance width="450"/>
  <unicode hex="2012"/>
  <outline>
    <contour>
      <point x="418" y="318" type="line"/>
      <point x="52" y="318" type="line"/>
      <point x="34" y="196" type="line"/>
      <point x="400" y="196" type="line"/>
    </contour>
  </outline>
</glyph>
<glyph name="endash" format="2">
  <advance width="532"/>
  <unicode hex="2013"/>
  <outline>
    <contour>
      <point x="491" y="318" type="line"/>
      <point x="50" y="318" type="line"/>
      <point x="32" y="196" type="line"/>
      <point x="473" y="196" type="line"/>
    </contour>
  </outline>
</glyph>
<glyph name="minus" format="2">
  <advance width="569"/>
  <unicode hex="2212"/>
  <outline>
    <contour>
      <point x="534" y="369" type="line"/>
      <point x="57" y="369" type="line"/>
      <point x="34" y="215" type="line"/>
      <point x="511" y="215" type="line"/>
    </contour>
  </outline>
</glyph>
<glyph name="uni2215" format="2">
  <advance width="591"/>
  <unicode hex="2215"/>
  <outline>
    <contour>
      <point x="652" y="709" type="line"/>
      <point x="488" y="709" type="line"/>
      <point x="-39" y="-58" type="line"/>
      <point x="125" y="-58" type="line"/>
    </contour>
  </outline>
</glyph>
<glyph name="notequal" format="2">
  <advance width="608"/>
  <unicode hex="2260"/>
  <outline>
    <contour>
      <point x="493" y="603" type="line"/>
      <point x="57" y="12" type="line"/>
      <point x="103" y="-12" type="line"/>
      <point x="540" y="578" type="line"/>
    </contour>
    <component base="equal" xOffset="18"/>
  </outline>
</glyph>
<glyph name="u1FA9D" format="2">
  <advance width="256"/>
  <unicode hex="1FA9D"/>
  <anchor x="114" y="526" name="_top"/>
  <outline>
    <contour>
      <point x="104" y="604" type="curve"/>
      <point x="110" y="517" type="line"/>
      <point x="216" y="523"/>
      <point x="284" y="591"/>
      <point x="284" y="690" type="curve" smooth="yes"/>
      <point x="284" y="768"/>
      <point x="220" y="804"/>
      <point x="111" y="767" type="curve"/>
      <point x="116" y="674" type="line"/>
      <point x="144" y="686"/>
      <point x="168" y="684"/>
      <point x="168" y="660" type="curve" smooth="yes"/>
      <point x="168" y="630"/>
      <point x="150" y="611"/>
    </contour>
  </outline>
</glyph>
<glyph name="Oslash.rvrn" format="2">
  <advance width="700"/>
  <outline>
    <contour>
      <point x="233" y="46" type="line"/>
      <point x="104" y="95" type="line"/>
      <point x="36" y="-18" type="line"/>
      <point x="165" y="-68" type="line"/>
    </contour>
    <contour>
      <point x="493" y="653" type="line"/>
      <point x="618" y="595" type="line"/>
      <point x="687" y="711" type="line"/>
      <point x="557" y="760" type="line"/>
    </contour>
    <component base="O"/>
  </outline>
</glyph>
<glyph name="Oslashacute.rvrn" format="2">
  <advance width="701"/>
  <outline>
    <contour>
      <point x="233" y="46" type="line"/>
      <point x="104" y="95" type="line"/>
      <point x="36" y="-18" type="line"/>
      <point x="165" y="-68" type="line"/>
    </contour>
    <contour>
      <point x="493" y="653" type="line"/>
      <point x="618" y="595" type="line"/>
      <point x="687" y="711" type="line"/>
      <point x="557" y="760" type="line"/>
    </contour>
    <component base="O"/>
    <component base="acutecomb" xOffset="632" yOffset="209"/>
  </outline>
</glyph>
<glyph name="c_t" format="2">
  <advance width="890"/>
  <anchor x="188" y="0" name="bottom_1"/>
  <anchor x="633" y="0" name="bottom_2"/>
  <anchor x="445" y="0" name="caret_1"/>
  <anchor x="258" y="500" name="top_1"/>
  <anchor x="703" y="500" name="top_2"/>
  <outline>
    <contour>
      <point x="740" y="178" type="curve" smooth="yes"/>
      <point x="805" y="631" type="line"/>
      <point x="598" y="631" type="line"/>
      <point x="524" y="130" type="line" smooth="yes"/>
      <point x="511" y="42"/>
      <point x="572" y="-14"/>
      <point x="674" y="-14" type="curve" smooth="yes"/>
      <point x="716" y="-14"/>
      <point x="795" y="-8"/>
      <point x="841" y="10" type="curve"/>
      <point x="830" y="146" type="line"/>
      <point x="771" y="146" type="line"/>
      <point x="740" y="146"/>
      <point x="736" y="152"/>
    </contour>
    <contour>
      <point x="328" y="374" type="curve" smooth="yes"/>
      <point x="889" y="374" type="line"/>
      <point x="906" y="500" type="line"/>
      <point x="302" y="500" type="line" smooth="yes"/>
      <point x="115" y="500"/>
      <point x="46" y="427"/>
      <point x="21" y="259" type="curve" smooth="yes"/>
      <point x="-6" y="64"/>
      <point x="89" y="-12"/>
      <point x="265" y="-12" type="curve" smooth="yes"/>
      <point x="331" y="-12"/>
      <point x="406" y="-3"/>
      <point x="465" y="28" type="curve"/>
      <point x="450" y="161" type="line"/>
      <point x="395" y="154"/>
      <point x="338" y="154"/>
      <point x="302" y="154" type="curve" smooth="yes"/>
      <point x="242" y="154"/>
      <point x="228" y="170"/>
      <point x="240" y="253" type="curve" smooth="yes"/>
      <point x="250" y="344"/>
      <point x="268" y="374"/>
    </contour>
  </outline>
</glyph>
<glyph name="macrongrave" format="2">
  <advance width="400"/>
  <anchor x="249" y="563" name="_top"/>
  <outline>
    <contour>
      <point x="422" y="693" type="line"/>
      <point x="102" y="693" type="line"/>
      <point x="85" y="570" type="line"/>
      <point x="405" y="570" type="line"/>
    </contour>
    <contour>
      <point x="211" y="935" type="line"/>
      <point x="124" y="827" type="line"/>
      <point x="289" y="720" type="line"/>
      <point x="359" y="790" type="line"/>
    </contour>
  </outline>
</glyph>
<glyph name="oslash.rvrn" format="2">
  <advance width="615"/>
  <anchor x="346" y="547" name="top"/>
  <outline>
    <contour>
      <point x="227" y="25" type="line"/>
      <point x="124" y="64" type="line"/>
      <point x="55" y="-48" type="line"/>
      <point x="158" y="-86" type="line"/>
    </contour>
    <contour>
      <point x="398" y="464" type="line"/>
      <point x="501" y="426" type="line"/>
      <point x="567" y="533" type="line"/>
      <point x="464" y="571" type="line"/>
    </contour>
    <component base="o"/>
  </outline>
</glyph>
<glyph name="uni0306.cy" format="2">
  <advance width="0"/>
  <anchor x="337" y="500" name="_top"/>
  <outline>
    <contour>
      <point x="540" y="675" type="curve"/>
      <point x="413" y="675" type="line"/>
      <point x="412" y="613"/>
      <point x="389" y="598"/>
      <point x="351" y="598" type="curve" smooth="yes"/>
      <point x="312" y="598"/>
      <point x="293" y="613"/>
      <point x="310" y="675" type="curve"/>
      <point x="183" y="675" type="line"/>
      <point x="155" y="589"/>
      <point x="215" y="502"/>
      <point x="338" y="502" type="curve" smooth="yes"/>
      <point x="461" y="502"/>
      <point x="544" y="589"/>
    </contour>
  </outline>
</glyph>
<glyph name="uni030C.alt" format="2">
  <advance width="0"/>
  <anchor x="54" y="655" name="_topright"/>
  <outline>
    <contour>
      <point x="68" y="717" type="curve" smooth="yes"/>
      <point x="38" y="717" type="line" smooth="yes"/>
      <point x="-4" y="717"/>
      <point x="-23" y="703"/>
      <point x="-31" y="658" type="curve" smooth="yes"/>
      <point x="-37" y="624" type="line" smooth="yes"/>
      <point x="-43" y="588"/>
      <point x="-30" y="570"/>
      <point x="7" y="571" type="curve"/>
      <point x="0" y="533"/>
      <point x="-10" y="499"/>
      <point x="-26" y="462" type="curve"/>
      <point x="45" y="435" type="line"/>
      <point x="78" y="478"/>
      <point x="109" y="547"/>
      <point x="117" y="605" type="curve" smooth="yes"/>
      <point x="124" y="653" type="line" smooth="yes"/>
      <point x="131" y="699"/>
      <point x="112" y="717"/>
    </contour>
  </outline>
</glyph>
